PathFileType	4	(X/Y/Z)	SUBJ26_2_walk_RCNL2025.trc
DataRate	CameraRate	NumFrames	NumMarkers	Units	OrigDataRate	OrigDataStartFrame	OrigNumFrames
100	100	12	25	mm	100	86	341
Frame#	Time	R_Shoulder			L_Shoulder			C7			J_Notch			R_Elbow			L_Elbow			R_Wrist			L_Wrist			R_Asis			L_Asis			Sacral			Thoracic			Sternum			R_Thigh_Lateral			R_Knee_Lateral			R_Shank_Lateral			R_Ankle_Lateral			R_Heel			R_Toe			L_Thigh_Lateral			L_Knee_Lateral			L_Shank_Lateral			L_Ankle_Lateral			L_Heel			L_Toe		
		X1	Y1	Z1	X2	Y2	Z2	X3	Y3	Z3	X4	Y4	Z4	X5	Y5	Z5	X6	Y6	Z6	X7	Y7	Z7	X8	Y8	Z8	X9	Y9	Z9	X10	Y10	Z10	X11	Y11	Z11	X12	Y12	Z12	X13	Y13	Z13	X14	Y14	Z14	X15	Y15	Z15	X16	Y16	Z16	X17	Y17	Z17	X18	Y18	Z18	X19	Y19	Z19	X20	Y20	Z20	X21	Y21	Z21	X22	Y22	Z22	X23	Y23	Z23	X24	Y24	Z24	X25	Y25	Z25
86	0.85000000	-505.691345	1303.048218	22.682060	-555.535828	1309.598633	-309.544067	-611.190979	1367.730103	-121.962326	-467.318970	1268.200562	-155.759567	-564.089233	990.076660	134.776901	-667.313904	988.275513	-382.448456	-464.246475	757.924927	114.005440	-637.138672	744.005859	-391.292236	-481.647156	890.670593	-9.309798	-527.619385	910.402283	-306.499756	-709.066345	905.868591	-122.602600	-691.887024	1021.989014	-122.043747	-419.579437	1013.080200	-152.581558	-607.019958	568.254456	67.437851	-628.993591	424.005737	12.068439	-746.740356	336.257202	56.237499	-931.805115	185.685486	-15.418379	-961.057373	229.463470	-74.335869	-893.663086	68.806183	-54.605099	-517.829712	594.515686	-332.148407	-453.582153	440.125122	-252.581024	-456.418396	260.470764	-312.339996	-456.686798	59.087601	-217.975266	-518.464661	40.578384	-165.406998	-338.489594	44.809658	-181.472275
87	0.86000000	-492.595978	1304.839355	21.225321	-541.634888	1311.267334	-310.767670	-597.681885	1369.705078	-123.606216	-453.967010	1270.137451	-156.798798	-553.274597	991.696289	132.332718	-649.675659	989.326904	-385.417358	-457.790710	757.624298	111.654354	-615.134949	745.625031	-394.965652	-470.063171	892.119202	-10.061167	-515.463379	912.267700	-307.985992	-696.940979	908.004578	-124.200485	-679.376465	1024.236206	-123.248619	-407.158142	1014.263184	-153.517685	-586.065308	567.815796	67.338715	-602.746765	423.131744	12.645541	-720.200928	335.973724	56.266541	-907.751343	190.268616	-17.097521	-937.348145	234.458466	-75.539871	-869.901672	73.658821	-55.920418	-511.778503	595.580994	-332.893280	-449.848114	440.096344	-253.248016	-454.310303	260.251373	-312.616943	-456.744415	58.931885	-218.012482	-518.571167	40.579430	-165.503281	-338.503296	44.807091	-181.429199
88	0.87000000	-479.699066	1306.511475	19.943039	-527.776855	1312.822266	-311.943420	-584.269714	1371.664917	-125.139732	-440.819672	1271.981934	-157.683640	-542.623474	993.155151	129.902695	-631.898438	990.338135	-388.405731	-451.399277	757.291473	109.333370	-592.751648	747.310913	-398.599503	-458.645599	893.691284	-10.598092	-503.366852	913.955444	-309.307831	-684.945374	910.244019	-125.855820	-666.964050	1026.475952	-124.436623	-394.960907	1015.501892	-154.227615	-565.405701	567.918884	67.026657	-576.421753	422.998108	12.999955	-693.222534	335.977631	55.906956	-882.342834	193.639969	-18.944208	-912.668457	237.664703	-77.138336	-843.121338	77.918922	-57.400673	-505.631378	596.821472	-333.735809	-446.217834	440.138367	-253.921524	-452.035126	260.023804	-312.879425	-456.772980	58.770279	-218.032013	-518.647156	40.596386	-165.558853	-338.508148	44.791348	-181.415375
89	0.88000000	-466.978668	1308.085083	18.818678	-513.942505	1314.262085	-313.098785	-570.965088	1373.596924	-126.565773	-427.828400	1273.712158	-158.479568	-532.104065	994.480530	127.498589	-613.973694	991.322205	-391.395050	-445.040756	756.958496	107.031345	-570.039825	749.086182	-402.178986	-447.252686	895.353943	-10.966663	-491.329041	915.524902	-310.457733	-673.047302	912.560364	-127.514549	-654.632324	1028.692383	-125.606575	-382.970032	1016.782654	-154.719162	-545.067932	568.477295	66.468246	-550.057007	423.545502	13.127588	-665.883667	336.252289	55.176250	-855.645691	195.658539	-20.900053	-887.026001	238.998840	-79.067474	-813.694031	81.317604	-58.966328	-499.171570	598.194641	-334.676453	-442.634552	440.231384	-254.601273	-449.673615	259.818573	-313.176544	-456.763367	58.607162	-218.043045	-518.681702	40.633255	-165.585754	-338.500671	44.764957	-181.433472
90	0.89000000	-454.411865	1309.581055	17.829859	-500.114502	1315.587891	-314.259674	-557.776123	1375.482056	-127.895004	-414.941162	1275.315552	-159.245941	-521.683655	995.705688	125.134445	-595.905090	992.294495	-394.368164	-438.678589	756.662750	104.736835	-547.046112	750.974274	-405.688385	-435.784729	897.074585	-11.235296	-479.361298	917.021301	-311.447754	-661.220947	914.915283	-129.118011	-642.374023	1030.863525	-126.760452	-371.161835	1018.081665	-155.018066	-525.028931	569.375916	65.642548	-523.681519	424.676147	13.014071	-638.216797	336.689697	54.131031	-827.726990	196.243744	-22.926353	-860.437561	238.436768	-81.248299	-781.975647	83.712669	-60.531769	-492.284912	599.633545	-335.697205	-439.075226	440.353821	-255.287277	-447.354034	259.658264	-313.532410	-456.717865	58.449638	-218.057465	-518.668457	40.690144	-165.592392	-338.481171	44.729946	-181.478424
91	0.90000000	-441.977417	1311.017334	16.953665	-486.288025	1316.805542	-315.440979	-544.706116	1377.296021	-129.143661	-402.122498	1276.792603	-160.016663	-511.334961	996.863708	122.826431	-577.707520	993.268677	-397.309937	-432.271210	756.441650	102.439770	-523.808945	752.995605	-409.110123	-424.198334	898.815552	-11.486711	-467.485809	918.468262	-312.308502	-649.447815	917.260681	-130.606842	-630.187561	1032.960449	-127.901237	-359.504974	1019.368103	-155.163239	-505.241913	570.495422	64.543434	-497.335968	426.284973	12.635525	-610.238403	337.130737	52.841499	-798.631348	195.357193	-25.003141	-832.919373	236.003510	-83.594994	-748.276306	85.072754	-62.025963	-484.943237	601.070862	-336.773621	-435.537933	440.489136	-255.975647	-445.203186	259.551361	-313.944397	-456.648102	58.306957	-218.088150	-518.607117	40.764511	-165.584442	-338.453217	44.682835	-181.540787
92	0.91000000	-429.657257	1312.407104	16.169638	-472.480530	1317.930298	-316.636688	-531.752563	1379.010986	-130.330078	-389.357452	1278.146606	-160.799637	-501.041565	997.981934	120.594040	-559.405823	994.251526	-400.206390	-425.774323	756.327209	100.132740	-500.360962	755.163696	-412.425583	-412.497528	900.531860	-11.805408	-455.730438	919.867249	-313.084778	-637.714294	919.540283	-131.927246	-618.071838	1034.950195	-129.030777	-347.960968	1020.607727	-155.201126	-485.648041	571.730530	63.179821	-471.083374	428.277222	11.964730	-581.975647	337.410675	51.368095	-768.361267	192.986389	-27.127836	-804.473145	231.766464	-86.022469	-712.865173	85.441879	-63.400925	-477.172577	602.454163	-337.881104	-432.033813	440.627228	-256.652863	-443.305298	259.495728	-314.390106	-456.571655	58.187672	-218.145599	-518.505859	40.853275	-165.567886	-338.422455	44.615852	-181.613724
93	0.92000000	-417.437775	1313.754883	15.461042	-458.733429	1318.984131	-317.817810	-518.908325	1380.598633	-131.472229	-376.648987	1279.374878	-161.583588	-490.799591	999.076782	118.460541	-541.031128	995.239563	-403.043365	-419.143341	756.341431	97.812088	-476.732071	757.482758	-415.618332	-400.711304	902.173706	-12.265456	-444.118103	921.201660	-313.829773	-626.006836	921.691895	-133.037491	-606.023010	1036.799683	-130.147141	-336.485229	1021.765198	-155.181412	-466.183502	572.998047	61.573841	-445.006348	430.571869	10.980099	-553.474487	337.398193	49.751274	-736.901794	189.157944	-29.296701	-775.082092	225.828476	-88.451523	-675.982849	84.906487	-64.631607	-469.033325	603.750549	-338.991028	-428.580658	440.761932	-257.294861	-441.687531	259.485565	-314.836212	-456.505127	58.096851	-218.233124	-518.385254	40.956242	-165.553665	-338.392426	44.525799	-181.694153
94	0.93000000	-405.310211	1315.054810	14.816199	-445.097168	1319.983398	-318.944183	-506.162384	1382.032837	-132.585999	-364.011780	1280.464966	-162.345856	-480.616516	1000.151611	116.450424	-522.617859	996.217896	-405.805664	-412.336578	756.492798	95.478104	-452.951584	759.948761	-418.676910	-388.870239	903.692627	-12.920213	-432.659119	922.443787	-314.596497	-614.310608	923.652039	-133.911774	-594.033630	1038.478516	-131.242416	-325.030640	1022.806213	-155.153732	-446.791382	574.237976	59.758183	-419.194946	433.095520	9.673409	-524.791260	337.020111	48.013474	-704.277283	183.966721	-31.475306	-744.714600	218.319031	-90.813110	-637.844421	83.574173	-65.714005	-460.613586	604.938354	-340.068207	-425.196320	440.888306	-257.872894	-440.330994	259.514099	-315.246002	-456.459045	58.036404	-218.345688	-518.280090	41.078548	-165.561966	-338.362854	44.418316	-181.778000
95	0.94000000	-393.268097	1316.290039	14.228350	-431.606781	1320.927490	-319.984650	-493.501190	1383.289795	-133.683746	-351.462524	1281.397217	-163.060760	-470.506805	1001.196777	114.584976	-504.200134	997.161926	-408.478821	-405.319107	756.773773	93.134745	-429.047714	762.552307	-421.595474	-376.991486	905.047729	-13.795989	-421.353149	923.560181	-315.427246	-602.613525	925.363831	-134.541306	-582.094116	1039.958862	-132.303909	-313.553802	1023.698608	-155.162903	-427.437408	575.412292	57.772614	-393.732758	435.776123	8.052383	-495.981628	336.265961	46.166759	-670.564453	177.573288	-33.596912	-713.329346	209.385681	-93.051346	-598.628479	81.565697	-66.663078	-452.018738	605.995361	-341.078217	-421.893097	441.001221	-258.362061	-439.190277	259.572113	-315.588043	-456.437714	58.006771	-218.474335	-518.230042	41.227566	-165.616882	-338.332001	44.302170	-181.858200
96	0.95000000	-381.303406	1317.434082	13.693453	-418.268707	1321.797974	-320.929016	-480.909821	1384.349243	-134.772675	-339.008636	1282.150757	-163.707489	-460.485870	1002.191772	112.878448	-485.808746	998.040588	-411.051056	-398.065994	757.159821	90.789936	-405.048065	765.279327	-424.372345	-365.073181	906.210388	-14.892321	-410.194641	924.516174	-316.346832	-590.907776	926.784973	-134.933899	-570.193420	1041.218140	-133.317764	-302.021240	1024.414551	-155.244232	-408.123840	576.503906	55.657509	-368.688568	438.541687	6.137949	-467.097015	335.172424	44.219627	-635.843201	170.164642	-35.595516	-680.878174	199.187485	-95.125557	-558.464172	79.016609	-67.509102	-443.354187	606.896423	-341.994232	-418.672546	441.095428	-258.747345	-438.206207	259.648712	-315.844971	-456.439911	58.007202	-218.609634	-518.252441	41.404137	-165.726089	-338.298737	44.183514	-181.926605
97	0.96000000	-369.404572	1318.453613	13.207158	-405.065582	1322.566284	-321.786346	-468.373779	1385.194824	-135.854477	-326.639282	1282.710083	-164.277237	-450.564667	1003.109192	111.336784	-467.469360	998.821045	-413.513794	-390.562042	757.611908	88.456617	-380.983536	768.109833	-427.008347	-353.097168	907.164307	-16.187056	-399.172394	925.279114	-317.363464	-579.188049	927.891541	-135.111435	-558.318420	1042.240723	-134.271255	-290.412048	1024.936279	-155.420959	-388.888367	577.513428	53.447163	-344.116608	441.324097	3.958658	-438.188080	333.798706	42.179356	-600.153748	161.922836	-37.434391	-647.309753	187.892426	-97.012344	-517.434570	76.080452	-68.291405	-434.709015	607.618774	-342.796997	-415.521210	441.166382	-259.025452	-437.310883	259.734070	-316.015961	-456.458344	58.034573	-218.741302	-518.326599	41.598339	-165.869400	-338.262451	44.065689	-181.976822
